# xmcd CD database file
#
# Track frame offsets:
#	150
#	21170
#	40815
#	57135
#	76747
#	92930
#	112852
#	135450
#	151040
#	166935
#	183020
#	198842
#	219627
#	236722
#	253695
#
# Disc length: 3612 seconds
#
# Revision: 1
# Processed by: cddbd v1.5.2PL0 Copyright (c) Steve Scherf et al.
# Submitted via: CDex 1.70beta3
#
DISCID=b40e1a0f
DTITLE=Various Artist - BOMB presents 永遠の'80蔵出しアイドル大集合！ 東芝EMI編 [CD2)
DYEAR=2002
DGENRE=JPop
TTITLE0=シンフォニーの風 (西村知美)
TTITLE1=ロコモーション・ドリーム (田村英里子)
TTITLE2=JUST (桑田靖子)
TTITLE3=赤いポシェット (坂上香織)
TTITLE4=キミはどんとくらい (立花理佐)
TTITLE5=潮騒の詩 (沢口靖子)
TTITLE6=化石の森 (柏原芳恵)
TTITLE7=純愛カウントダウン (相川恵里)
TTITLE8=Far Away ～つれてって愛の国～ (辻沢杏子)
TTITLE9=想春賦 (千葉まなみ)
TTITLE10=5つの銅貨 (相本久美子)
TTITLE11=Sixteen (松下里美)
TTITLE12=スロータッチ (水谷圭)
TTITLE13=ザ・サンシャイン・ボーイズ (川島恵)
TTITLE14=夢・人・旅(夢ひとたび) (村松美香)
EXTD=YEAR: 2002
EXTT0=
EXTT1=
EXTT2=
EXTT3=
EXTT4=
EXTT5=
EXTT6=
EXTT7=
EXTT8=
EXTT9=
EXTT10=
EXTT11=
EXTT12=
EXTT13=
EXTT14=
PLAYORDER=
